<svg width="192" height="192" xmlns="http://www.w3.org/2000/svg">

 <g>
  <title>Layer 1</title>
  <g>

   <g id="svg_1">
    <path fill="#e24329" d="m189.0653,76.72985l-0.27,-0.69l-26.14,-68.22a6.81,6.81 0 0 0 -2.69,-3.24a7,7 0 0 0 -8,0.43a7,7 0 0 0 -2.32,3.52l-17.65,54l-71.47,0l-17.65,-54a6.86,6.86 0 0 0 -2.32,-3.53a7,7 0 0 0 -8,-0.43a6.87,6.87 0 0 0 -2.69,3.24l-26.19,68.19l-0.26,0.69a48.54,48.54 0 0 0 16.1,56.1l0.09,0.07l0.24,0.17l39.82,29.82l19.7,14.91l12,9.06a8.07,8.07 0 0 0 9.76,0l12,-9.06l19.7,-14.91l40.06,-30l0.1,-0.08a48.56,48.56 0 0 0 16.08,-56.04z" class="cls-1"/>
    <path fill="#fc6d26" d="m189.0653,76.72985l-0.27,-0.69a88.3,88.3 0 0 0 -35.15,15.8l-57.41,43.41c19.55,14.79 36.57,27.64 36.57,27.64l40.06,-30l0.1,-0.08a48.56,48.56 0 0 0 16.1,-56.08z" class="cls-2"/>
    <path fill="#fca326" d="m59.6653,162.88985l19.7,14.91l12,9.06a8.07,8.07 0 0 0 9.76,0l12,-9.06l19.7,-14.91s-17.04,-12.89 -36.59,-27.64c-19.55,14.75 -36.57,27.64 -36.57,27.64z" class="cls-3"/>
    <path fill="#fc6d26" d="m38.8153,91.83985a88.19,88.19 0 0 0 -35.14,-15.84l-0.26,0.69a48.54,48.54 0 0 0 16.1,56.1l0.09,0.07l0.24,0.17l39.82,29.82s17,-12.85 36.57,-27.64l-57.42,-43.37z" class="cls-2"/>
   </g>
  </g>
 </g>
</svg>